<svg width="25" height="21" viewBox="0 0 25 21" fill="none" xmlns="http://www.w3.org/2000/svg">
<path d="M12.4999 16.4923C9.53702 16.4923 7.13859 14.1989 6.91788 11.2927L2.82023 8.12589C2.28156 8.80167 1.78585 9.51612 1.38585 10.2974C1.29649 10.4741 1.24994 10.6694 1.24994 10.8675C1.24994 11.0656 1.29649 11.2608 1.38585 11.4376C3.50421 15.5708 7.69796 18.3673 12.4999 18.3673C13.5511 18.3673 14.5652 18.211 15.5425 17.9587L13.5155 16.3903C13.1808 16.455 12.8408 16.4891 12.4999 16.4923ZM24.7585 18.7618L20.4402 15.4243C21.7519 14.3188 22.8308 12.9635 23.614 11.4372C23.7033 11.2605 23.7499 11.0652 23.7499 10.8671C23.7499 10.669 23.7033 10.4737 23.614 10.297C21.4956 6.16377 17.3019 3.36729 12.4999 3.36729C10.4888 3.36973 8.51031 3.87603 6.74523 4.83995L1.7757 0.998931C1.71089 0.948504 1.63679 0.911341 1.55762 0.889565C1.47844 0.86779 1.39576 0.861829 1.31428 0.872022C1.2328 0.882216 1.15413 0.908365 1.08277 0.948974C1.0114 0.989584 0.948736 1.04386 0.898353 1.1087L0.131556 2.09581C0.0298368 2.22666 -0.015743 2.39256 0.00484145 2.55701C0.0254259 2.72147 0.110489 2.87101 0.241322 2.97276L23.2241 20.7357C23.2889 20.7861 23.363 20.8232 23.4422 20.845C23.5214 20.8668 23.6041 20.8728 23.6856 20.8626C23.767 20.8524 23.8457 20.8262 23.9171 20.7856C23.9884 20.745 24.0511 20.6907 24.1015 20.6259L24.8687 19.6388C24.9703 19.5079 25.0159 19.3419 24.9952 19.1775C24.9745 19.013 24.8894 18.8635 24.7585 18.7618ZM17.5819 13.2149L16.0468 12.0282C16.1761 11.6546 16.2447 11.2626 16.2499 10.8673C16.2575 10.2885 16.1293 9.71596 15.8755 9.19571C15.6217 8.67545 15.2495 8.22196 14.7886 7.87167C14.3278 7.52138 13.7912 7.28405 13.2221 7.17875C12.6529 7.07345 12.0669 7.1031 11.5112 7.26534C11.7468 7.58452 11.8742 7.9706 11.8749 8.36729C11.8691 8.4993 11.8489 8.63027 11.8148 8.75792L8.93937 6.53565C9.93819 5.70096 11.1982 5.24325 12.4999 5.24229C13.2387 5.24188 13.9704 5.38709 14.653 5.66963C15.3356 5.95217 15.9559 6.36649 16.4783 6.8889C17.0007 7.41131 17.415 8.03157 17.6976 8.71421C17.9801 9.39685 18.1253 10.1285 18.1249 10.8673C18.1249 11.7122 17.9183 12.4993 17.5819 13.2149Z" fill="#6F6F6F"/>
</svg>
