<svg width="25" height="18" viewBox="0 0 25 18" fill="none" xmlns="http://www.w3.org/2000/svg">
<path d="M24.8489 8.44379C22.4952 3.85135 17.8355 0.744141 12.5 0.744141C7.16447 0.744141 2.50345 3.85352 0.151018 8.44423C0.0517306 8.64063 0 8.85762 0 9.07769C0 9.29776 0.0517306 9.51475 0.151018 9.71115C2.50475 14.3036 7.16447 17.4108 12.5 17.4108C17.8355 17.4108 22.4965 14.3014 24.8489 9.71072C24.9482 9.51432 25 9.29733 25 9.07726C25 8.85718 24.9482 8.64019 24.8489 8.44379ZM12.5 15.3275C11.2638 15.3275 10.0555 14.9609 9.02766 14.2742C7.99985 13.5874 7.19878 12.6113 6.72573 11.4692C6.25268 10.3272 6.12891 9.07054 6.37007 7.85816C6.61123 6.64578 7.20648 5.53213 8.08056 4.65806C8.95464 3.78398 10.0683 3.18872 11.2807 2.94757C12.493 2.70641 13.7497 2.83018 14.8917 3.30323C16.0338 3.77627 17.0099 4.57735 17.6967 5.60516C18.3834 6.63297 18.75 7.84134 18.75 9.07747C18.7504 9.89835 18.589 10.7113 18.275 11.4697C17.9611 12.2282 17.5007 12.9173 16.9203 13.4978C16.3398 14.0782 15.6507 14.5386 14.8922 14.8525C14.1338 15.1665 13.3209 15.3279 12.5 15.3275ZM12.5 4.91081C12.1281 4.916 11.7586 4.97134 11.4015 5.0753C11.6958 5.47534 11.8371 5.96762 11.7996 6.46287C11.7621 6.95812 11.5484 7.42354 11.1972 7.77474C10.846 8.12594 10.3806 8.33964 9.88537 8.37711C9.39012 8.41457 8.89784 8.27332 8.49781 7.97895C8.27001 8.81818 8.31113 9.70772 8.61538 10.5224C8.91962 11.337 9.47167 12.0357 10.1938 12.5202C10.916 13.0046 11.7719 13.2504 12.641 13.223C13.5102 13.1955 14.3489 12.8962 15.039 12.3671C15.7291 11.838 16.236 11.1059 16.4882 10.2736C16.7404 9.44143 16.7253 8.55108 16.445 7.7279C16.1647 6.90472 15.6333 6.19016 14.9256 5.68481C14.2179 5.17946 13.3696 4.90876 12.5 4.91081Z" fill="#DF0B0B"/>
</svg>
