<svg width="17" height="18" viewBox="0 0 17 18" fill="none" xmlns="http://www.w3.org/2000/svg">
<path d="M13.75 1C12.1851 1 11 2.39638 11 4C11 4.34005 11.0558 4.66234 11.1513 4.96159L8.71677 7.66667H5.70383C5.26361 6.70403 4.35285 6 3.25 6C1.68511 6 0.5 7.39638 0.5 9C0.5 10.6036 1.68511 12 3.25 12C4.35285 12 5.26361 11.296 5.70383 10.3333H8.71677L11.1513 13.0384C11.0558 13.3377 11 13.6599 11 14C11 15.6036 12.1851 17 13.75 17C15.3149 17 16.5 15.6036 16.5 14C16.5 12.3964 15.3149 11 13.75 11C13.4545 11 13.175 11.0544 12.9159 11.1474L10.9832 9L12.9159 6.85261C13.175 6.94555 13.4545 7 13.75 7C15.3149 7 16.5 5.60362 16.5 4C16.5 2.39638 15.3149 1 13.75 1Z" stroke="#494949"/>
</svg>
