<svg width="72" height="50" viewBox="0 0 72 50" fill="none" xmlns="http://www.w3.org/2000/svg">
<path d="M34.9679 38.4851C35.8949 41.4996 37.5344 44.3201 39.6764 46.6377L39.6813 46.6429C40.7048 47.7346 42.1397 48.3655 43.637 48.3655C44.8636 48.3655 45.745 47.9786 46.466 47.5738V47.7339C46.466 48.1788 46.528 48.6015 46.6355 49H19.6472C17.2413 49 15.2889 47.0476 15.2889 44.6417V41.4267C15.2889 34.8797 20.6008 29.5666 27.1601 29.5666H27.8626C30.2596 30.6812 32.9028 31.3528 35.7334 31.3528C35.9623 31.3528 36.2136 31.336 36.4392 31.3184C36.7249 31.5881 37.0485 31.84 37.4192 32.0547C37.4196 32.055 37.42 32.0552 37.4204 32.0554L37.5359 32.1227C36.2735 32.934 33.8949 35.0246 34.9679 38.4851ZM34.9679 38.4851C34.9677 38.4845 34.9675 38.4838 34.9673 38.4832L35.9232 38.1893L34.9681 38.4856C34.968 38.4854 34.968 38.4853 34.9679 38.4851ZM67.168 34.3353L67.0399 35.0295L67.6513 35.3826L70.4012 36.9707C69.7076 39.1353 68.553 41.1056 67.0575 42.7508L64.309 41.1635L63.6972 40.8102L63.1598 41.2687C62.0365 42.2272 60.7477 42.9697 59.3547 43.465L58.6897 43.7015V44.4072V47.5828C56.553 48.0453 54.2732 48.0642 52.027 47.5825V44.4072V43.7015L51.362 43.465C49.969 42.9697 48.6802 42.2272 47.5569 41.2687L47.0194 40.8102L46.4077 41.1635L43.6596 42.7506C42.1621 41.0935 41.0083 39.1326 40.3155 36.9707L43.0654 35.3826L43.6767 35.0295L43.5487 34.3353C43.2806 32.8812 43.2806 31.3966 43.5487 29.9424L43.6767 29.2482L43.0654 28.8951L40.3155 27.307C41.0091 25.1425 42.1637 23.1721 43.6592 21.5269L46.4077 23.1142L47.0194 23.4675L47.5569 23.009C48.6802 22.0506 49.969 21.308 51.362 20.8127L52.027 20.5763V19.8705V16.695C54.1636 16.2324 56.4435 16.2136 58.6897 16.6953V19.8705V20.5763L59.3547 20.8127C60.7477 21.308 62.0365 22.0506 63.1598 23.009L63.6972 23.4675L64.309 23.1142L67.0575 21.5269C68.553 23.1721 69.7076 25.1425 70.4012 27.307L67.6513 28.8951L67.0399 29.2482L67.168 29.9424C67.4361 31.3966 67.4361 32.8812 67.168 34.3353ZM39.6655 17.6398L39.6652 17.6402C37.9491 19.4975 36.6012 21.6778 35.6427 23.9941C29.3216 23.9514 24.2195 18.8228 24.2195 12.4916C24.2195 6.13389 29.3534 1 35.7111 1C42.0688 1 47.2139 6.14505 47.2139 12.5028C47.2139 13.9728 46.9134 15.3775 46.3902 16.6824L46.324 16.6439C46.3227 16.6431 46.3213 16.6423 46.32 16.6415C45.502 16.1572 44.5671 15.9123 43.6258 15.9123C42.1199 15.9123 40.6814 16.5415 39.6655 17.6398ZM48.9554 32.1389C48.9554 35.6704 51.8241 38.553 55.3695 38.553C58.9149 38.553 61.7837 35.6704 61.7837 32.1389C61.7837 28.606 58.9024 25.7247 55.3695 25.7247C51.8366 25.7247 48.9554 28.606 48.9554 32.1389ZM16.8611 14.2777C16.8611 17.6661 14.105 20.4222 10.7167 20.4222C7.32835 20.4222 4.57223 17.6661 4.57223 14.2777C4.57223 10.8894 7.32835 8.13329 10.7167 8.13329C14.105 8.13329 16.8611 10.8894 16.8611 14.2777ZM14.2889 25.9944C15.5026 25.9944 16.6316 26.3454 17.585 26.9535C13.7174 29.5149 10.9481 33.548 10.0751 38.2833H3.57223C2.14862 38.2833 1 37.1347 1 35.7111V32.1389C1 28.7505 3.75612 25.9944 7.14445 25.9944H14.2889Z" stroke="#DF0B0B" stroke-width="2"/>
</svg>
