<svg width="63" height="50" viewBox="0 0 63 50" fill="none" xmlns="http://www.w3.org/2000/svg">
<path d="M1.03125 6.25083V6.25C1.03125 3.32698 3.34007 1 6.25 1H56.25C59.1665 1 61.5 3.33353 61.5 6.25V43.75C61.5 46.6665 59.1665 49 56.25 49H6.25C3.33366 49 1.00021 46.6667 1 43.7504C1 43.7503 1 43.7501 1 43.75L1.03125 6.25083ZM56.25 44.75H57.25V43.75V25V24H56.25H6.25H5.25V25V43.75V44.75H6.25H56.25ZM56.25 13.5H57.25V12.5V6.25V5.25H56.25H6.25H5.25V6.25V12.5V13.5H6.25H56.25Z" stroke="#DF0B0B" stroke-width="2"/>
</svg>
